<?xml version="1.0" encoding="UTF-8"?>
<svg xmlns="http://www.w3.org/2000/svg">
   <g transform="translate(100, 520)">
      <line x1="0" y1="-50" x2="-10" y2="-50" stroke="black"/>
      <line x1="0" y1="-50" x2="450" y2="-50" stroke="lightgray"/>
      <text x="-20" y="-50" text-anchor="end" alignment-baseline="central">10</text>
      <line x1="0" y1="-100" x2="-10" y2="-100" stroke="black"/>
      <line x1="0" y1="-100" x2="450" y2="-100" stroke="lightgray"/>
      <text x="-20" y="-100" text-anchor="end" alignment-baseline="central">20</text>
      <line x1="0" y1="-150" x2="-10" y2="-150" stroke="black"/>
      <line x1="0" y1="-150" x2="450" y2="-150" stroke="lightgray"/>
      <text x="-20" y="-150" text-anchor="end" alignment-baseline="central">30</text>
      <line x1="0" y1="-200" x2="-10" y2="-200" stroke="black"/>
      <line x1="0" y1="-200" x2="450" y2="-200" stroke="lightgray"/>
      <text x="-20" y="-200" text-anchor="end" alignment-baseline="central">40</text>
      <line x1="0" y1="-250" x2="-10" y2="-250" stroke="black"/>
      <line x1="0" y1="-250" x2="450" y2="-250" stroke="lightgray"/>
      <text x="-20" y="-250" text-anchor="end" alignment-baseline="central">50</text>
      <line x1="0" y1="-300" x2="-10" y2="-300" stroke="black"/>
      <line x1="0" y1="-300" x2="450" y2="-300" stroke="lightgray"/>
      <text x="-20" y="-300" text-anchor="end" alignment-baseline="central">60</text>
      <line x1="0" y1="-350" x2="-10" y2="-350" stroke="black"/>
      <line x1="0" y1="-350" x2="450" y2="-350" stroke="lightgray"/>
      <text x="-20" y="-350" text-anchor="end" alignment-baseline="central">70</text>
      <line x1="0" y1="-400" x2="-10" y2="-400" stroke="black"/>
      <line x1="0" y1="-400" x2="450" y2="-400" stroke="lightgray"/>
      <text x="-20" y="-400" text-anchor="end" alignment-baseline="central">80</text>
      <line x1="0" y1="-450" x2="-10" y2="-450" stroke="black"/>
      <line x1="0" y1="-450" x2="450" y2="-450" stroke="lightgray"/>
      <text x="-20" y="-450" text-anchor="end" alignment-baseline="central">90</text>
      <line x1="0" y1="-500" x2="-10" y2="-500" stroke="black"/>
      <line x1="0" y1="-500" x2="450" y2="-500" stroke="lightgray"/>
      <text x="-20" y="-500" text-anchor="end" alignment-baseline="central">100</text>
      <rect x="25" y="-250" width="100" height="250" fill="blue"/>
      <text x="75" y="-265" text-anchor="middle">50%</text>
      <text x="75" y="25" text-anchor="middle">Curly</text>
      <rect x="175" y="-175" width="100" height="175" fill="blue"/>
      <text x="225" y="-190" text-anchor="middle">35%</text>
      <text x="225" y="25" text-anchor="middle">Larry</text>
      <rect x="325" y="-75" width="100" height="75" fill="blue"/>
      <text x="375" y="-90" text-anchor="middle">15%</text>
      <text x="375" y="25" text-anchor="middle">Moe</text>
      <line x1="0"
            y1="0"
            x2="450"
            y2="0"
            stroke="black"
            stroke-linecap="square"/>
      <line x1="0"
            y1="0"
            x2="0"
            y2="-500"
            stroke="black"
            stroke-linecap="square"/>
      <text x="225" y="50" text-anchor="middle" font-size="larger">Stooges</text>
      <text x="-60"
            y="-250"
            writing-mode="tb"
            text-anchor="middle"
            font-size="larger">Percentage</text>
   </g>
</svg>
