<?xml version="1.0" encoding="UTF-8"?>
<svg xmlns="http://www.w3.org/2000/svg" height="990">
   <g transform="translate(120, 870)">
      <line x1="0" y1="-80" x2="-10" y2="-80" stroke="black"/>
      <line x1="0" y1="-80" x2="2302.5" y2="-80" stroke="gray"/>
      <text x="-20" y="-80" text-anchor="end" alignment-baseline="central">10</text>
      <line x1="0" y1="-160" x2="-10" y2="-160" stroke="black"/>
      <line x1="0" y1="-160" x2="2302.5" y2="-160" stroke="gray"/>
      <text x="-20" y="-160" text-anchor="end" alignment-baseline="central">20</text>
      <line x1="0" y1="-240" x2="-10" y2="-240" stroke="black"/>
      <line x1="0" y1="-240" x2="2302.5" y2="-240" stroke="gray"/>
      <text x="-20" y="-240" text-anchor="end" alignment-baseline="central">30</text>
      <line x1="0" y1="-320" x2="-10" y2="-320" stroke="black"/>
      <line x1="0" y1="-320" x2="2302.5" y2="-320" stroke="gray"/>
      <text x="-20" y="-320" text-anchor="end" alignment-baseline="central">40</text>
      <line x1="0" y1="-400" x2="-10" y2="-400" stroke="black"/>
      <line x1="0" y1="-400" x2="2302.5" y2="-400" stroke="gray"/>
      <text x="-20" y="-400" text-anchor="end" alignment-baseline="central">50</text>
      <line x1="0" y1="-480" x2="-10" y2="-480" stroke="black"/>
      <line x1="0" y1="-480" x2="2302.5" y2="-480" stroke="gray"/>
      <text x="-20" y="-480" text-anchor="end" alignment-baseline="central">60</text>
      <line x1="0" y1="-560" x2="-10" y2="-560" stroke="black"/>
      <line x1="0" y1="-560" x2="2302.5" y2="-560" stroke="gray"/>
      <text x="-20" y="-560" text-anchor="end" alignment-baseline="central">70</text>
      <line x1="0" y1="-640" x2="-10" y2="-640" stroke="black"/>
      <line x1="0" y1="-640" x2="2302.5" y2="-640" stroke="gray"/>
      <text x="-20" y="-640" text-anchor="end" alignment-baseline="central">80</text>
      <line x1="0" y1="-720" x2="-10" y2="-720" stroke="black"/>
      <line x1="0" y1="-720" x2="2302.5" y2="-720" stroke="gray"/>
      <text x="-20" y="-720" text-anchor="end" alignment-baseline="central">90</text>
      <line x1="0" y1="-800" x2="-10" y2="-800" stroke="black"/>
      <line x1="0" y1="-800" x2="2302.5" y2="-800" stroke="gray"/>
      <text x="-20" y="-800" text-anchor="end" alignment-baseline="central">100</text>
      <rect x="7.5"
            y="-800"
            stroke="black"
            width="30"
            fill="blue"
            height="800"/>
      <rect x="7.5"
            y="-492.05786574239795"
            fill="green"
            width="30"
            height="492.05786574239795"/>
      <rect x="7.5"
            y="-490.7455748499567"
            fill="yellow"
            width="30"
            height="490.7455748499567"/>
      <rect x="7.5"
            y="-485.9794988499994"
            fill="red"
            width="30"
            height="485.9794988499994"/>
      <text x="22.5" y="30" text-anchor="middle" font-size="120%">AL</text>
      <rect x="52.5"
            y="-800"
            stroke="black"
            width="30"
            fill="blue"
            height="800"/>
      <rect x="52.5"
            y="-469.8342916483153"
            fill="green"
            width="30"
            height="469.8342916483153"/>
      <rect x="52.5"
            y="-462.1860895495853"
            fill="yellow"
            width="30"
            height="462.1860895495853"/>
      <rect x="52.5"
            y="-442.3673545253614"
            fill="red"
            width="30"
            height="442.3673545253614"/>
      <text x="67.5" y="30" text-anchor="middle" font-size="120%">AK</text>
      <rect x="97.5"
            y="-800"
            stroke="black"
            width="30"
            fill="blue"
            height="800"/>
      <rect x="97.5"
            y="-446.9924565431289"
            fill="green"
            width="30"
            height="446.9924565431289"/>
      <rect x="97.5"
            y="-444.30314322333334"
            fill="yellow"
            width="30"
            height="444.30314322333334"/>
      <rect x="97.5"
            y="-433.4014872914966"
            fill="red"
            width="30"
            height="433.4014872914966"/>
      <text x="112.5" y="30" text-anchor="middle" font-size="120%">AZ</text>
      <rect x="142.5"
            y="-800"
            stroke="black"
            width="30"
            fill="blue"
            height="800"/>
      <rect x="142.5"
            y="-504.5983876346385"
            fill="green"
            width="30"
            height="504.5983876346385"/>
      <rect x="142.5"
            y="-497.62139370314617"
            fill="yellow"
            width="30"
            height="497.62139370314617"/>
      <rect x="142.5"
            y="-485.42861072435863"
            fill="red"
            width="30"
            height="485.42861072435863"/>
      <text x="157.5" y="30" text-anchor="middle" font-size="120%">AR</text>
      <rect x="187.5"
            y="-800"
            stroke="black"
            width="30"
            fill="blue"
            height="800"/>
      <rect x="187.5"
            y="-321.92763559591884"
            fill="green"
            width="30"
            height="321.92763559591884"/>
      <rect x="187.5"
            y="-316.83722341085786"
            fill="yellow"
            width="30"
            height="316.83722341085786"/>
      <rect x="187.5"
            y="-308.261308719849"
            fill="red"
            width="30"
            height="308.261308719849"/>
      <text x="202.5" y="30" text-anchor="middle" font-size="120%">CA</text>
      <rect x="232.5"
            y="-800"
            stroke="black"
            width="30"
            fill="blue"
            height="800"/>
      <rect x="232.5"
            y="-386.87788942834874"
            fill="green"
            width="30"
            height="386.87788942834874"/>
      <rect x="232.5"
            y="-384.5599734609734"
            fill="yellow"
            width="30"
            height="384.5599734609734"/>
      <rect x="232.5"
            y="-373.6727626897892"
            fill="red"
            width="30"
            height="373.6727626897892"/>
      <text x="247.5" y="30" text-anchor="middle" font-size="120%">CO</text>
      <rect x="277.5"
            y="-800"
            stroke="black"
            width="30"
            fill="blue"
            height="800"/>
      <rect x="277.5"
            y="-330.9834044436849"
            fill="green"
            width="30"
            height="330.9834044436849"/>
      <rect x="277.5"
            y="-330.9834044436849"
            fill="yellow"
            width="30"
            height="330.9834044436849"/>
      <rect x="277.5"
            y="-324.49294924963107"
            fill="red"
            width="30"
            height="324.49294924963107"/>
      <text x="292.5" y="30" text-anchor="middle" font-size="120%">CT</text>
      <rect x="322.5"
            y="-800"
            stroke="black"
            width="30"
            fill="blue"
            height="800"/>
      <rect x="322.5"
            y="-331.1140641233178"
            fill="green"
            width="30"
            height="331.1140641233178"/>
      <rect x="322.5"
            y="-327.3642755321462"
            fill="yellow"
            width="30"
            height="327.3642755321462"/>
      <rect x="322.5"
            y="-319.8608325883689"
            fill="red"
            width="30"
            height="319.8608325883689"/>
      <text x="337.5" y="30" text-anchor="middle" font-size="120%">DE</text>
      <rect x="367.5"
            y="-800"
            stroke="black"
            width="30"
            fill="blue"
            height="800"/>
      <rect x="367.5"
            y="-69.08953432943768"
            fill="green"
            width="30"
            height="69.08953432943768"/>
      <rect x="367.5"
            y="-62.36665187303779"
            fill="yellow"
            width="30"
            height="62.36665187303779"/>
      <rect x="367.5"
            y="-56.99492085408551"
            fill="red"
            width="30"
            height="56.99492085408551"/>
      <text x="382.5" y="30" text-anchor="middle" font-size="120%">DC</text>
      <rect x="412.5"
            y="-800"
            stroke="black"
            width="30"
            fill="blue"
            height="800"/>
      <rect x="412.5"
            y="-399.0734785909065"
            fill="green"
            width="30"
            height="399.0734785909065"/>
      <rect x="412.5"
            y="-398.2278473523438"
            fill="yellow"
            width="30"
            height="398.2278473523438"/>
      <rect x="412.5"
            y="-393.9981765396023"
            fill="red"
            width="30"
            height="393.9981765396023"/>
      <text x="427.5" y="30" text-anchor="middle" font-size="120%">FL</text>
      <rect x="457.5"
            y="-800"
            stroke="black"
            width="30"
            fill="blue"
            height="800"/>
      <rect x="457.5"
            y="-435.93632266494325"
            fill="green"
            width="30"
            height="435.93632266494325"/>
      <rect x="457.5"
            y="-435.93632266494325"
            fill="yellow"
            width="30"
            height="435.93632266494325"/>
      <rect x="457.5"
            y="-426.6339374201961"
            fill="red"
            width="30"
            height="426.6339374201961"/>
      <text x="472.5" y="30" text-anchor="middle" font-size="120%">GA</text>
      <rect x="502.5"
            y="-800"
            stroke="black"
            width="30"
            fill="blue"
            height="800"/>
      <rect x="502.5"
            y="-235.64098964649895"
            fill="green"
            width="30"
            height="235.64098964649895"/>
      <rect x="502.5"
            y="-229.78466834967637"
            fill="yellow"
            width="30"
            height="229.78466834967637"/>
      <rect x="502.5"
            y="-222.71878933766592"
            fill="red"
            width="30"
            height="222.71878933766592"/>
      <text x="517.5" y="30" text-anchor="middle" font-size="120%">HI</text>
      <rect x="547.5"
            y="-800"
            stroke="black"
            width="30"
            fill="blue"
            height="800"/>
      <rect x="547.5"
            y="-536.9800168175298"
            fill="green"
            width="30"
            height="536.9800168175298"/>
      <rect x="547.5"
            y="-531.5378147103921"
            fill="yellow"
            width="30"
            height="531.5378147103921"/>
      <rect x="547.5"
            y="-519.8471583320967"
            fill="red"
            width="30"
            height="519.8471583320967"/>
      <text x="562.5" y="30" text-anchor="middle" font-size="120%">ID</text>
      <rect x="592.5"
            y="-800"
            stroke="black"
            width="30"
            fill="blue"
            height="800"/>
      <rect x="592.5"
            y="-341.6576623222546"
            fill="green"
            width="30"
            height="341.6576623222546"/>
      <rect x="592.5"
            y="-337.04785701840933"
            fill="yellow"
            width="30"
            height="337.04785701840933"/>
      <rect x="592.5"
            y="-328.43699967452756"
            fill="red"
            width="30"
            height="328.43699967452756"/>
      <text x="607.5" y="30" text-anchor="middle" font-size="120%">IL</text>
      <rect x="637.5"
            y="-800"
            stroke="black"
            width="30"
            fill="blue"
            height="800"/>
      <rect x="637.5"
            y="-447.88249432092823"
            fill="green"
            width="30"
            height="447.88249432092823"/>
      <rect x="637.5"
            y="-447.806684205398"
            fill="yellow"
            width="30"
            height="447.806684205398"/>
      <rect x="637.5"
            y="-432.50985359553545"
            fill="red"
            width="30"
            height="432.50985359553545"/>
      <text x="652.5" y="30" text-anchor="middle" font-size="120%">IN</text>
      <rect x="682.5"
            y="-800"
            stroke="black"
            width="30"
            fill="blue"
            height="800"/>
      <rect x="682.5"
            y="-381.56549883049814"
            fill="green"
            width="30"
            height="381.56549883049814"/>
      <rect x="682.5"
            y="-379.64919428978146"
            fill="yellow"
            width="30"
            height="379.64919428978146"/>
      <rect x="682.5"
            y="-373.0761518359994"
            fill="red"
            width="30"
            height="373.0761518359994"/>
      <text x="697.5" y="30" text-anchor="middle" font-size="120%">IA</text>
      <rect x="727.5"
            y="-800"
            stroke="black"
            width="30"
            fill="blue"
            height="800"/>
      <rect x="727.5"
            y="-496.109833316615"
            fill="green"
            width="30"
            height="496.109833316615"/>
      <rect x="727.5"
            y="-496.109833316615"
            fill="yellow"
            width="30"
            height="496.109833316615"/>
      <rect x="727.5"
            y="-481.99895784047504"
            fill="red"
            width="30"
            height="481.99895784047504"/>
      <text x="742.5" y="30" text-anchor="middle" font-size="120%">KS</text>
      <rect x="772.5"
            y="-800"
            stroke="black"
            width="30"
            fill="blue"
            height="800"/>
      <rect x="772.5"
            y="-496.3584395036125"
            fill="green"
            width="30"
            height="496.3584395036125"/>
      <rect x="772.5"
            y="-493.52608984229215"
            fill="yellow"
            width="30"
            height="493.52608984229215"/>
      <rect x="772.5"
            y="-485.9001548696793"
            fill="red"
            width="30"
            height="485.9001548696793"/>
      <text x="787.5" y="30" text-anchor="middle" font-size="120%">KY</text>
      <rect x="817.5"
            y="-800"
            stroke="black"
            width="30"
            fill="blue"
            height="800"/>
      <rect x="817.5"
            y="-474.15030570771864"
            fill="green"
            width="30"
            height="474.15030570771864"/>
      <rect x="817.5"
            y="-471.3401908244393"
            fill="yellow"
            width="30"
            height="471.3401908244393"/>
      <rect x="817.5"
            y="-464.02817363674893"
            fill="red"
            width="30"
            height="464.02817363674893"/>
      <text x="832.5" y="30" text-anchor="middle" font-size="120%">LA</text>
      <rect x="862.5"
            y="-800"
            stroke="black"
            width="30"
            fill="blue"
            height="800"/>
      <rect x="862.5"
            y="-352.2918431264404"
            fill="green"
            width="30"
            height="352.2918431264404"/>
      <rect x="862.5"
            y="-342.04784322774356"
            fill="yellow"
            width="30"
            height="342.04784322774356"/>
      <rect x="862.5"
            y="-326.9131522445683"
            fill="red"
            width="30"
            height="326.9131522445683"/>
      <text x="877.5" y="30" text-anchor="middle" font-size="120%">ME</text>
      <rect x="907.5"
            y="-800"
            stroke="black"
            width="30"
            fill="blue"
            height="800"/>
      <rect x="907.5"
            y="-306.62165375069316"
            fill="green"
            width="30"
            height="306.62165375069316"/>
      <rect x="907.5"
            y="-301.57769987904163"
            fill="yellow"
            width="30"
            height="301.57769987904163"/>
      <rect x="907.5"
            y="-292.61344522595795"
            fill="red"
            width="30"
            height="292.61344522595795"/>
      <text x="922.5" y="30" text-anchor="middle" font-size="120%">MD</text>
      <rect x="952.5"
            y="-800"
            stroke="black"
            width="30"
            fill="blue"
            height="800"/>
      <rect x="952.5"
            y="-313.94025959245994"
            fill="green"
            width="30"
            height="313.94025959245994"/>
      <rect x="952.5"
            y="-308.9115747599048"
            fill="yellow"
            width="30"
            height="308.9115747599048"/>
      <rect x="952.5"
            y="-301.1047480702553"
            fill="red"
            width="30"
            height="301.1047480702553"/>
      <text x="967.5" y="30" text-anchor="middle" font-size="120%">MA</text>
      <rect x="997.5"
            y="-800"
            stroke="black"
            width="30"
            fill="blue"
            height="800"/>
      <rect x="997.5"
            y="-363.6015263623091"
            fill="green"
            width="30"
            height="363.6015263623091"/>
      <rect x="997.5"
            y="-359.8800593566402"
            fill="yellow"
            width="30"
            height="359.8800593566402"/>
      <rect x="997.5"
            y="-359.8800593566402"
            fill="red"
            width="30"
            height="359.8800593566402"/>
      <text x="1012.5" y="30" text-anchor="middle" font-size="120%">MI</text>
      <rect x="1042.5"
            y="-800"
            stroke="black"
            width="30"
            fill="blue"
            height="800"/>
      <rect x="1042.5"
            y="-378.7780301397118"
            fill="green"
            width="30"
            height="378.7780301397118"/>
      <rect x="1042.5"
            y="-369.21620333901063"
            fill="yellow"
            width="30"
            height="369.21620333901063"/>
      <rect x="1042.5"
            y="-359.65437653830946"
            fill="red"
            width="30"
            height="359.65437653830946"/>
      <text x="1057.5" y="30" text-anchor="middle" font-size="120%">MN</text>
      <rect x="1087.5"
            y="-800"
            stroke="black"
            width="30"
            fill="blue"
            height="800"/>
      <rect x="1087.5"
            y="-450.8826075750266"
            fill="green"
            width="30"
            height="450.8826075750266"/>
      <rect x="1087.5"
            y="-449.8688149729369"
            fill="yellow"
            width="30"
            height="449.8688149729369"/>
      <rect x="1087.5"
            y="-445.63388472900544"
            fill="red"
            width="30"
            height="445.63388472900544"/>
      <text x="1102.5" y="30" text-anchor="middle" font-size="120%">MS</text>
      <rect x="1132.5"
            y="-800"
            stroke="black"
            width="30"
            fill="blue"
            height="800"/>
      <rect x="1132.5"
            y="-443.819367112866"
            fill="green"
            width="30"
            height="443.819367112866"/>
      <rect x="1132.5"
            y="-443.819367112866"
            fill="yellow"
            width="30"
            height="443.819367112866"/>
      <rect x="1132.5"
            y="-431.2054492242535"
            fill="red"
            width="30"
            height="431.2054492242535"/>
      <text x="1147.5" y="30" text-anchor="middle" font-size="120%">MO</text>
      <rect x="1177.5"
            y="-800"
            stroke="black"
            width="30"
            fill="blue"
            height="800"/>
      <rect x="1177.5"
            y="-466.4194383440798"
            fill="green"
            width="30"
            height="466.4194383440798"/>
      <rect x="1177.5"
            y="-466.4194383440798"
            fill="yellow"
            width="30"
            height="466.4194383440798"/>
      <rect x="1177.5"
            y="-442.8970751994182"
            fill="red"
            width="30"
            height="442.8970751994182"/>
      <text x="1192.5" y="30" text-anchor="middle" font-size="120%">MT</text>
      <rect x="1222.5"
            y="-800"
            stroke="black"
            width="30"
            fill="blue"
            height="800"/>
      <rect x="1222.5"
            y="-496.1265116857091"
            fill="green"
            width="30"
            height="496.1265116857091"/>
      <rect x="1222.5"
            y="-496.1265116857091"
            fill="yellow"
            width="30"
            height="496.1265116857091"/>
      <rect x="1222.5"
            y="-484.9459275426482"
            fill="red"
            width="30"
            height="484.9459275426482"/>
      <text x="1237.5" y="30" text-anchor="middle" font-size="120%">NE</text>
      <rect x="1267.5"
            y="-800"
            stroke="black"
            width="30"
            fill="blue"
            height="800"/>
      <rect x="1267.5"
            y="-377.8597933208315"
            fill="green"
            width="30"
            height="377.8597933208315"/>
      <rect x="1267.5"
            y="-377.8597933208315"
            fill="yellow"
            width="30"
            height="377.8597933208315"/>
      <rect x="1267.5"
            y="-369.15532857199855"
            fill="red"
            width="30"
            height="369.15532857199855"/>
      <text x="1282.5" y="30" text-anchor="middle" font-size="120%">NV</text>
      <rect x="1312.5"
            y="-800"
            stroke="black"
            width="30"
            fill="blue"
            height="800"/>
      <rect x="1312.5"
            y="-381.64372131831453"
            fill="green"
            width="30"
            height="381.64372131831453"/>
      <rect x="1312.5"
            y="-381.64372131831453"
            fill="yellow"
            width="30"
            height="381.64372131831453"/>
      <rect x="1312.5"
            y="-372.19994380731015"
            fill="red"
            width="30"
            height="372.19994380731015"/>
      <text x="1327.5" y="30" text-anchor="middle" font-size="120%">NH</text>
      <rect x="1357.5"
            y="-800"
            stroke="black"
            width="30"
            fill="blue"
            height="800"/>
      <rect x="1357.5"
            y="-334.8859716957411"
            fill="green"
            width="30"
            height="334.8859716957411"/>
      <rect x="1357.5"
            y="-332.7425147427899"
            fill="yellow"
            width="30"
            height="332.7425147427899"/>
      <rect x="1357.5"
            y="-328.12089324939154"
            fill="red"
            width="30"
            height="328.12089324939154"/>
      <text x="1372.5" y="30" text-anchor="middle" font-size="120%">NJ</text>
      <rect x="1402.5"
            y="-800"
            stroke="black"
            width="30"
            fill="blue"
            height="800"/>
      <rect x="1402.5"
            y="-375.6282115269736"
            fill="green"
            width="30"
            height="375.6282115269736"/>
      <rect x="1402.5"
            y="-372.88288125205264"
            fill="yellow"
            width="30"
            height="372.88288125205264"/>
      <rect x="1402.5"
            y="-344.46447181614354"
            fill="red"
            width="30"
            height="344.46447181614354"/>
      <text x="1417.5" y="30" text-anchor="middle" font-size="120%">NM</text>
      <rect x="1447.5"
            y="-800"
            stroke="black"
            width="30"
            fill="blue"
            height="800"/>
      <rect x="1447.5"
            y="-298.3163525340142"
            fill="green"
            width="30"
            height="298.3163525340142"/>
      <rect x="1447.5"
            y="-293.70896576496114"
            fill="yellow"
            width="30"
            height="293.70896576496114"/>
      <rect x="1447.5"
            y="-288.2140147010522"
            fill="red"
            width="30"
            height="288.2140147010522"/>
      <text x="1462.5" y="30" text-anchor="middle" font-size="120%">NY</text>
      <rect x="1492.5"
            y="-800"
            stroke="black"
            width="30"
            fill="blue"
            height="800"/>
      <rect x="1492.5"
            y="-412.6483011149714"
            fill="green"
            width="30"
            height="412.6483011149714"/>
      <rect x="1492.5"
            y="-412.6483011149714"
            fill="yellow"
            width="30"
            height="412.6483011149714"/>
      <rect x="1492.5"
            y="-404.68251108736774"
            fill="red"
            width="30"
            height="404.68251108736774"/>
      <text x="1507.5" y="30" text-anchor="middle" font-size="120%">NC</text>
      <rect x="1537.5"
            y="-800"
            stroke="black"
            width="30"
            fill="blue"
            height="800"/>
      <rect x="1537.5"
            y="-487.51668787498863"
            fill="green"
            width="30"
            height="487.51668787498863"/>
      <rect x="1537.5"
            y="-484.11001647683395"
            fill="yellow"
            width="30"
            height="484.11001647683395"/>
      <rect x="1537.5"
            y="-470.7884805982935"
            fill="red"
            width="30"
            height="470.7884805982935"/>
      <text x="1552.5" y="30" text-anchor="middle" font-size="120%">ND</text>
      <rect x="1582.5"
            y="-800"
            stroke="black"
            width="30"
            fill="blue"
            height="800"/>
      <rect x="1582.5"
            y="-397.13499231547047"
            fill="green"
            width="30"
            height="397.13499231547047"/>
      <rect x="1582.5"
            y="-394.4674374595797"
            fill="yellow"
            width="30"
            height="394.4674374595797"/>
      <rect x="1582.5"
            y="-387.40469017679646"
            fill="red"
            width="30"
            height="387.40469017679646"/>
      <text x="1597.5" y="30" text-anchor="middle" font-size="120%">OH</text>
      <rect x="1627.5"
            y="-800"
            stroke="black"
            width="30"
            fill="blue"
            height="800"/>
      <rect x="1627.5"
            y="-534.1785579441325"
            fill="green"
            width="30"
            height="534.1785579441325"/>
      <rect x="1627.5"
            y="-534.1785579441325"
            fill="yellow"
            width="30"
            height="534.1785579441325"/>
      <rect x="1627.5"
            y="-534.1785579441325"
            fill="red"
            width="30"
            height="534.1785579441325"/>
      <text x="1642.5" y="30" text-anchor="middle" font-size="120%">OK</text>
      <rect x="1672.5"
            y="-800"
            stroke="black"
            width="30"
            fill="blue"
            height="800"/>
      <rect x="1672.5"
            y="-360.9037369466588"
            fill="green"
            width="30"
            height="360.9037369466588"/>
      <rect x="1672.5"
            y="-352.16259028829074"
            fill="yellow"
            width="30"
            height="352.16259028829074"/>
      <rect x="1672.5"
            y="-341.41573911802345"
            fill="red"
            width="30"
            height="341.41573911802345"/>
      <text x="1687.5" y="30" text-anchor="middle" font-size="120%">OR</text>
      <rect x="1717.5"
            y="-800"
            stroke="black"
            width="30"
            fill="blue"
            height="800"/>
      <rect x="1717.5"
            y="-384.78257321651705"
            fill="green"
            width="30"
            height="384.78257321651705"/>
      <rect x="1717.5"
            y="-381.82375526776457"
            fill="yellow"
            width="30"
            height="381.82375526776457"/>
      <rect x="1717.5"
            y="-374.8565046381873"
            fill="red"
            width="30"
            height="374.8565046381873"/>
      <text x="1732.5" y="30" text-anchor="middle" font-size="120%">PA</text>
      <rect x="1762.5"
            y="-800"
            stroke="black"
            width="30"
            fill="blue"
            height="800"/>
      <rect x="1762.5"
            y="-295.8675597118665"
            fill="green"
            width="30"
            height="295.8675597118665"/>
      <rect x="1762.5"
            y="-291.5058402989655"
            fill="yellow"
            width="30"
            height="291.5058402989655"/>
      <rect x="1762.5"
            y="-283.5984185156433"
            fill="red"
            width="30"
            height="283.5984185156433"/>
      <text x="1777.5" y="30" text-anchor="middle" font-size="120%">RI</text>
      <rect x="1807.5"
            y="-800"
            stroke="black"
            width="30"
            fill="blue"
            height="800"/>
      <rect x="1807.5"
            y="-446.4893286704144"
            fill="green"
            width="30"
            height="446.4893286704144"/>
      <rect x="1807.5"
            y="-444.26640737351283"
            fill="yellow"
            width="30"
            height="444.26640737351283"/>
      <rect x="1807.5"
            y="-437.6005033337691"
            fill="red"
            width="30"
            height="437.6005033337691"/>
      <text x="1822.5" y="30" text-anchor="middle" font-size="120%">SC</text>
      <rect x="1852.5"
            y="-800"
            stroke="black"
            width="30"
            fill="blue"
            height="800"/>
      <rect x="1852.5"
            y="-479.06994759878484"
            fill="green"
            width="30"
            height="479.06994759878484"/>
      <rect x="1852.5"
            y="-479.06994759878484"
            fill="yellow"
            width="30"
            height="479.06994759878484"/>
      <rect x="1852.5"
            y="-466.24354668245525"
            fill="red"
            width="30"
            height="466.24354668245525"/>
      <text x="1867.5" y="30" text-anchor="middle" font-size="120%">SD</text>
      <rect x="1897.5"
            y="-800"
            stroke="black"
            width="30"
            fill="blue"
            height="800"/>
      <rect x="1897.5"
            y="-486.08174998752094"
            fill="green"
            width="30"
            height="486.08174998752094"/>
      <rect x="1897.5"
            y="-483.954819920412"
            fill="yellow"
            width="30"
            height="483.954819920412"/>
      <rect x="1897.5"
            y="-477.8768013891492"
            fill="red"
            width="30"
            height="477.8768013891492"/>
      <text x="1912.5" y="30" text-anchor="middle" font-size="120%">TN</text>
      <rect x="1942.5"
            y="-800"
            stroke="black"
            width="30"
            fill="blue"
            height="800"/>
      <rect x="1942.5"
            y="-469.01686571475216"
            fill="green"
            width="30"
            height="469.01686571475216"/>
      <rect x="1942.5"
            y="-466.56047419909834"
            fill="yellow"
            width="30"
            height="466.56047419909834"/>
      <rect x="1942.5"
            y="-457.7083223448744"
            fill="red"
            width="30"
            height="457.7083223448744"/>
      <text x="1957.5" y="30" text-anchor="middle" font-size="120%">TX</text>
      <rect x="1987.5"
            y="-800"
            stroke="black"
            width="30"
            fill="blue"
            height="800"/>
      <rect x="1987.5"
            y="-599.5210007218844"
            fill="green"
            width="30"
            height="599.5210007218844"/>
      <rect x="1987.5"
            y="-596.5696836922915"
            fill="yellow"
            width="30"
            height="596.5696836922915"/>
      <rect x="1987.5"
            y="-586.8970872344398"
            fill="red"
            width="30"
            height="586.8970872344398"/>
      <text x="2002.5" y="30" text-anchor="middle" font-size="120%">UT</text>
      <rect x="2032.5"
            y="-800"
            stroke="black"
            width="30"
            fill="blue"
            height="800"/>
      <rect x="2032.5"
            y="-260.4663128249567"
            fill="green"
            width="30"
            height="260.4663128249567"/>
      <rect x="2032.5"
            y="-260.4663128249567"
            fill="yellow"
            width="30"
            height="260.4663128249567"/>
      <rect x="2032.5"
            y="-251.02361351819758"
            fill="red"
            width="30"
            height="251.02361351819758"/>
      <text x="2047.5" y="30" text-anchor="middle" font-size="120%">VT</text>
      <rect x="2077.5"
            y="-800"
            stroke="black"
            width="30"
            fill="blue"
            height="800"/>
      <rect x="2077.5"
            y="-388.5831023153273"
            fill="green"
            width="30"
            height="388.5831023153273"/>
      <rect x="2077.5"
            y="-386.7830920903678"
            fill="yellow"
            width="30"
            height="386.7830920903678"/>
      <rect x="2077.5"
            y="-380.27083622431894"
            fill="red"
            width="30"
            height="380.27083622431894"/>
      <text x="2092.5" y="30" text-anchor="middle" font-size="120%">VA</text>
      <rect x="2122.5"
            y="-800"
            stroke="black"
            width="30"
            fill="blue"
            height="800"/>
      <rect x="2122.5"
            y="-350.8124031535751"
            fill="green"
            width="30"
            height="350.8124031535751"/>
      <rect x="2122.5"
            y="-345.67105419994215"
            fill="yellow"
            width="30"
            height="345.67105419994215"/>
      <rect x="2122.5"
            y="-335.1189061249511"
            fill="red"
            width="30"
            height="335.1189061249511"/>
      <text x="2137.5" y="30" text-anchor="middle" font-size="120%">WA</text>
      <rect x="2167.5"
            y="-800"
            stroke="black"
            width="30"
            fill="blue"
            height="800"/>
      <rect x="2167.5"
            y="-514.3230639208604"
            fill="green"
            width="30"
            height="514.3230639208604"/>
      <rect x="2167.5"
            y="-509.04425758045585"
            fill="yellow"
            width="30"
            height="509.04425758045585"/>
      <rect x="2167.5"
            y="-501.4999787193939"
            fill="red"
            width="30"
            height="501.4999787193939"/>
      <text x="2182.5" y="30" text-anchor="middle" font-size="120%">WV</text>
      <rect x="2212.5"
            y="-800"
            stroke="black"
            width="30"
            fill="blue"
            height="800"/>
      <rect x="2212.5"
            y="-376.7480907672695"
            fill="green"
            width="30"
            height="376.7480907672695"/>
      <rect x="2212.5"
            y="-374.7555457650388"
            fill="yellow"
            width="30"
            height="374.7555457650388"/>
      <rect x="2212.5"
            y="-369.43772165932216"
            fill="red"
            width="30"
            height="369.43772165932216"/>
      <text x="2227.5" y="30" text-anchor="middle" font-size="120%">WI</text>
      <rect x="2257.5"
            y="-800"
            stroke="black"
            width="30"
            fill="blue"
            height="800"/>
      <rect x="2257.5"
            y="-574.2888090758794"
            fill="green"
            width="30"
            height="574.2888090758794"/>
      <rect x="2257.5"
            y="-574.2888090758794"
            fill="yellow"
            width="30"
            height="574.2888090758794"/>
      <rect x="2257.5"
            y="-556.9384381082688"
            fill="red"
            width="30"
            height="556.9384381082688"/>
      <text x="2272.5" y="30" text-anchor="middle" font-size="120%">WY</text>
      <line x1="0"
            y1="0"
            x2="2302.5"
            y2="0"
            stroke="black"
            stroke-width="1"
            stroke-linecap="square"/>
      <line x1="0"
            x2="0"
            y1="0"
            y2="-840"
            stroke="black"
            stroke-width="1"
            stroke-linecap="square"/>
      <text x="1151.25" y="90" text-anchor="middle" font-size="200%">State
                    (acronym and electoral votes)</text>
      <text x="-70"
            y="-420"
            text-anchor="middle"
            font-size="200%"
            writing-mode="tb">Democratic percentage</text>
   </g>
</svg>
